<svg id="logo" xmlns="http://www.w3.org/2000/svg" width="154.261" height="40.656" viewBox="0 0 154.261 40.656">
  <path id="Caminho_82" data-name="Caminho 82" d="M0,.728v39.2H22.064v-7.9H8.4V.728Z"/>
  <path id="Caminho_83" data-name="Caminho 83" d="M64.027,20.328a20.5,20.5,0,1,0-20.5,20.328A20.292,20.292,0,0,0,64.027,20.328Zm-8.624,0a11.875,11.875,0,1,1-23.744,0,11.875,11.875,0,1,1,23.744,0Z"/>
  <path id="Caminho_84" data-name="Caminho 84" d="M107.11,10.136C103.918,3.808,97.31,0,89.414,0a20.328,20.328,0,1,0-.056,40.656A18.9,18.9,0,0,0,108.734,21.28V18.144H88.35V25.2H99.718c-1.064,4.48-5.1,7.56-10.3,7.56A12.136,12.136,0,0,1,77.43,20.328,12.042,12.042,0,0,1,89.358,7.952a10.836,10.836,0,0,1,10.136,5.88Z"/>
  <path id="Caminho_85" data-name="Caminho 85" d="M154.261,20.328a20.5,20.5,0,1,0-20.5,20.328A20.292,20.292,0,0,0,154.261,20.328Zm-8.624,0a11.875,11.875,0,1,1-23.744,0,11.875,11.875,0,1,1,23.744,0Z"/>
</svg>
