<svg xmlns="http://www.w3.org/2000/svg" width="23" height="21" viewBox="0 0 23 21">
  <g id="sing-out_black_icon" transform="translate(-1025 -324)">
    <path id="Subtração_4" data-name="Subtração 4" d="M10,21H4a4,4,0,0,1-4-4V4A4,4,0,0,1,4,0h6a4,4,0,0,1,4,4v6H7v1h7v6A4,4,0,0,1,10,21Z" transform="translate(1025 324)"/>
    <path id="Polígono_5" data-name="Polígono 5" d="M3.7,1.067a1,1,0,0,1,1.6,0L7.8,4.4A1,1,0,0,1,7,6H2a1,1,0,0,1-.8-1.6Z" transform="translate(1048 330) rotate(90)"/>
  </g>
</svg>
