<svg id="ticket_icon" xmlns="http://www.w3.org/2000/svg" width="8.021" height="5.323" viewBox="0 0 8.021 5.323">
  <path id="Subtração_12" data-name="Subtração 12" d="M5.862,5.323H1a1,1,0,0,1-1-1v-1A.644.644,0,0,0,.617,2.66.643.643,0,0,0,0,2V1A1,1,0,0,1,1,0H5.862V.511a.154.154,0,0,0,.308,0V0h.851a1,1,0,0,1,1,1V2A.644.644,0,0,0,7.4,2.66a.643.643,0,0,0,.617.665v1a1,1,0,0,1-1,1H6.17V5.143a.154.154,0,0,0-.308,0v.179Zm.154-1.664a.154.154,0,0,0-.154.154V4.5a.154.154,0,1,0,.308,0V3.812A.154.154,0,0,0,6.016,3.658Zm0-1.33a.154.154,0,0,0-.154.154v.689a.154.154,0,0,0,.308,0V2.482A.154.154,0,0,0,6.016,2.328Zm0-1.33a.154.154,0,0,0-.154.154v.689a.154.154,0,0,0,.308,0V1.152A.154.154,0,0,0,6.016,1Z" transform="translate(0 0)" fill="#0a0a0a"/>
</svg>
