<svg xmlns="http://www.w3.org/2000/svg" width="23.999" height="20.138" viewBox="0 0 23.999 20.138">
  <g id="wallet_black_icon" transform="translate(-990 -403)">
    <path id="Subtração_3" data-name="Subtração 3" d="M17,20.138H7a6.869,6.869,0,0,1-7-6.713V6.713A6.869,6.869,0,0,1,7,0H17a6.868,6.868,0,0,1,7,6.713v.856H20.5c-3.048,0-5.022,2.03-5.1,3.911a3.06,3.06,0,0,0,.93,2.227,5.375,5.375,0,0,0,3.84,1.525h3.575A6.982,6.982,0,0,1,17,20.138ZM5,3A1,1,0,0,0,4,4V6A1,1,0,0,0,5,7h6a1,1,0,0,0,1-1V4a1,1,0,0,0-1-1Z" transform="translate(990 403)"/>
    <path id="Caminho_92" data-name="Caminho 92" d="M1026.723,410.847h-3.093a2.1,2.1,0,0,0-2.233,1.789,1.928,1.928,0,0,0,2.088,1.717h3.239Z" transform="translate(-13.779 1.902)" stroke="#000" stroke-width="2"/>
  </g>
</svg>
